<svg width="223" height="273" viewBox="0 0 223 273" fill="none" xmlns="http://www.w3.org/2000/svg">
<g clip-path="url(#clip0_0_2352)">
<rect x="54" width="169" height="268" rx="15" fill="white"/>
<rect x="64" y="76" width="71" height="71" rx="15" fill="#F2F2F2"/>
<rect x="145" y="76" width="71" height="71" rx="15" fill="#F2F2F2"/>
<rect x="64" y="157" width="71" height="71" rx="15" fill="#F2F2F2"/>
<rect x="145" y="157" width="71" height="71" rx="15" fill="#F2F2F2"/>
<rect x="64" y="36" width="149" height="25" rx="12.5" fill="#F2F2F2"/>
<path d="M79.4655 46.955C79.4355 47.005 79.4021 47.0433 79.3655 47.07C79.3321 47.0933 79.2905 47.105 79.2405 47.105C79.1838 47.105 79.1171 47.0767 79.0405 47.02C78.9638 46.9633 78.8671 46.9017 78.7505 46.835C78.6371 46.765 78.4988 46.7017 78.3355 46.645C78.1755 46.5883 77.9805 46.56 77.7505 46.56C77.5338 46.56 77.3421 46.59 77.1755 46.65C77.0121 46.7067 76.8738 46.785 76.7605 46.885C76.6505 46.985 76.5671 47.1033 76.5105 47.24C76.4538 47.3733 76.4255 47.5183 76.4255 47.675C76.4255 47.875 76.4738 48.0417 76.5705 48.175C76.6705 48.305 76.8005 48.4167 76.9605 48.51C77.1238 48.6033 77.3071 48.685 77.5105 48.755C77.7171 48.8217 77.9271 48.8917 78.1405 48.965C78.3571 49.0383 78.5671 49.1217 78.7705 49.215C78.9771 49.305 79.1605 49.42 79.3205 49.56C79.4838 49.7 79.6138 49.8717 79.7105 50.075C79.8105 50.2783 79.8605 50.5283 79.8605 50.825C79.8605 51.1383 79.8071 51.4333 79.7005 51.71C79.5938 51.9833 79.4371 52.2217 79.2305 52.425C79.0271 52.6283 78.7755 52.7883 78.4755 52.905C78.1788 53.0217 77.8405 53.08 77.4605 53.08C76.9938 53.08 76.5705 52.9967 76.1905 52.83C75.8105 52.66 75.4855 52.4317 75.2155 52.145L75.4955 51.685C75.5221 51.6483 75.5538 51.6183 75.5905 51.595C75.6305 51.5683 75.6738 51.555 75.7205 51.555C75.7638 51.555 75.8121 51.5733 75.8655 51.61C75.9221 51.6433 75.9855 51.6867 76.0555 51.74C76.1255 51.7933 76.2055 51.8517 76.2955 51.915C76.3855 51.9783 76.4871 52.0367 76.6005 52.09C76.7171 52.1433 76.8488 52.1883 76.9955 52.225C77.1421 52.2583 77.3071 52.275 77.4905 52.275C77.7205 52.275 77.9255 52.2433 78.1055 52.18C78.2855 52.1167 78.4371 52.0283 78.5605 51.915C78.6871 51.7983 78.7838 51.66 78.8505 51.5C78.9171 51.34 78.9505 51.1617 78.9505 50.965C78.9505 50.7483 78.9005 50.5717 78.8005 50.435C78.7038 50.295 78.5755 50.1783 78.4155 50.085C78.2555 49.9917 78.0721 49.9133 77.8655 49.85C77.6588 49.7833 77.4488 49.7167 77.2355 49.65C77.0221 49.58 76.8121 49.5 76.6055 49.41C76.3988 49.32 76.2155 49.2033 76.0555 49.06C75.8955 48.9167 75.7655 48.7383 75.6655 48.525C75.5688 48.3083 75.5205 48.0417 75.5205 47.725C75.5205 47.4717 75.5688 47.2267 75.6655 46.99C75.7655 46.7533 75.9088 46.5433 76.0955 46.36C76.2855 46.1767 76.5171 46.03 76.7905 45.92C77.0671 45.81 77.3838 45.755 77.7405 45.755C78.1405 45.755 78.5038 45.8183 78.8305 45.945C79.1605 46.0717 79.4505 46.255 79.7005 46.495L79.4655 46.955ZM84.738 49.915C84.738 49.7083 84.708 49.52 84.648 49.35C84.5913 49.1767 84.5063 49.0283 84.393 48.905C84.283 48.7783 84.148 48.6817 83.988 48.615C83.828 48.545 83.6463 48.51 83.443 48.51C83.0163 48.51 82.678 48.635 82.428 48.885C82.1813 49.1317 82.028 49.475 81.968 49.915H84.738ZM85.458 52.29C85.348 52.4233 85.2163 52.54 85.063 52.64C84.9097 52.7367 84.7447 52.8167 84.568 52.88C84.3947 52.9433 84.2147 52.99 84.028 53.02C83.8413 53.0533 83.6563 53.07 83.473 53.07C83.123 53.07 82.7997 53.0117 82.503 52.895C82.2097 52.775 81.9547 52.6017 81.738 52.375C81.5247 52.145 81.358 51.8617 81.238 51.525C81.118 51.1883 81.058 50.8017 81.058 50.365C81.058 50.0117 81.1113 49.6817 81.218 49.375C81.328 49.0683 81.4847 48.8033 81.688 48.58C81.8913 48.3533 82.1397 48.1767 82.433 48.05C82.7263 47.92 83.0563 47.855 83.423 47.855C83.7263 47.855 84.0063 47.9067 84.263 48.01C84.523 48.11 84.7463 48.2567 84.933 48.45C85.123 48.64 85.2713 48.8767 85.378 49.16C85.4847 49.44 85.538 49.76 85.538 50.12C85.538 50.26 85.523 50.3533 85.493 50.4C85.463 50.4467 85.4063 50.47 85.323 50.47H81.938C81.948 50.79 81.9913 51.0683 82.068 51.305C82.148 51.5417 82.258 51.74 82.398 51.9C82.538 52.0567 82.7047 52.175 82.898 52.255C83.0913 52.3317 83.308 52.37 83.548 52.37C83.7713 52.37 83.963 52.345 84.123 52.295C84.2863 52.2417 84.4263 52.185 84.543 52.125C84.6597 52.065 84.7563 52.01 84.833 51.96C84.913 51.9067 84.9813 51.88 85.038 51.88C85.1113 51.88 85.168 51.9083 85.208 51.965L85.458 52.29ZM89.7333 50.72C89.3233 50.7333 88.9733 50.7667 88.6833 50.82C88.3967 50.87 88.1617 50.9367 87.9783 51.02C87.7983 51.1033 87.6667 51.2017 87.5833 51.315C87.5033 51.4283 87.4633 51.555 87.4633 51.695C87.4633 51.8283 87.485 51.9433 87.5283 52.04C87.5717 52.1367 87.63 52.2167 87.7033 52.28C87.78 52.34 87.8683 52.385 87.9683 52.415C88.0717 52.4417 88.1817 52.455 88.2983 52.455C88.455 52.455 88.5983 52.44 88.7283 52.41C88.8583 52.3767 88.98 52.33 89.0933 52.27C89.21 52.21 89.32 52.1383 89.4233 52.055C89.53 51.9717 89.6333 51.8767 89.7333 51.77V50.72ZM86.8583 48.65C87.1383 48.38 87.44 48.1783 87.7633 48.045C88.0867 47.9117 88.445 47.845 88.8383 47.845C89.1217 47.845 89.3733 47.8917 89.5933 47.985C89.8133 48.0783 89.9983 48.2083 90.1483 48.375C90.2983 48.5417 90.4117 48.7433 90.4883 48.98C90.565 49.2167 90.6033 49.4767 90.6033 49.76V53H90.2083C90.1217 53 90.055 52.9867 90.0083 52.96C89.9617 52.93 89.925 52.8733 89.8983 52.79L89.7983 52.31C89.665 52.4333 89.535 52.5433 89.4083 52.64C89.2817 52.7333 89.1483 52.8133 89.0083 52.88C88.8683 52.9433 88.7183 52.9917 88.5583 53.025C88.4017 53.0617 88.2267 53.08 88.0333 53.08C87.8367 53.08 87.6517 53.0533 87.4783 53C87.305 52.9433 87.1533 52.86 87.0233 52.75C86.8967 52.64 86.795 52.5017 86.7183 52.335C86.645 52.165 86.6083 51.965 86.6083 51.735C86.6083 51.535 86.6633 51.3433 86.7733 51.16C86.8833 50.9733 87.0617 50.8083 87.3083 50.665C87.555 50.5217 87.8767 50.405 88.2733 50.315C88.67 50.2217 89.1567 50.1683 89.7333 50.155V49.76C89.7333 49.3667 89.6483 49.07 89.4783 48.87C89.3083 48.6667 89.06 48.565 88.7333 48.565C88.5133 48.565 88.3283 48.5933 88.1783 48.65C88.0317 48.7033 87.9033 48.765 87.7933 48.835C87.6867 48.9017 87.5933 48.9633 87.5133 49.02C87.4367 49.0733 87.36 49.1 87.2833 49.1C87.2233 49.1 87.1717 49.085 87.1283 49.055C87.085 49.0217 87.0483 48.9817 87.0183 48.935L86.8583 48.65ZM93.1612 48.95C93.3212 48.6033 93.5179 48.3333 93.7512 48.14C93.9845 47.9433 94.2695 47.845 94.6062 47.845C94.7129 47.845 94.8145 47.8567 94.9112 47.88C95.0112 47.9033 95.0995 47.94 95.1762 47.99L95.1112 48.655C95.0912 48.7383 95.0412 48.78 94.9612 48.78C94.9145 48.78 94.8462 48.77 94.7562 48.75C94.6662 48.73 94.5645 48.72 94.4512 48.72C94.2912 48.72 94.1479 48.7433 94.0212 48.79C93.8979 48.8367 93.7862 48.9067 93.6862 49C93.5895 49.09 93.5012 49.2033 93.4212 49.34C93.3445 49.4733 93.2745 49.6267 93.2112 49.8V53H92.3162V47.935H92.8262C92.9229 47.935 92.9895 47.9533 93.0262 47.99C93.0629 48.0267 93.0879 48.09 93.1012 48.18L93.1612 48.95ZM99.6358 48.835C99.6092 48.8717 99.5825 48.9 99.5558 48.92C99.5292 48.94 99.4925 48.95 99.4458 48.95C99.3958 48.95 99.3408 48.93 99.2808 48.89C99.2208 48.8467 99.1458 48.8 99.0558 48.75C98.9692 48.7 98.8608 48.655 98.7308 48.615C98.6042 48.5717 98.4475 48.55 98.2608 48.55C98.0108 48.55 97.7908 48.595 97.6008 48.685C97.4108 48.7717 97.2508 48.8983 97.1208 49.065C96.9942 49.2317 96.8975 49.4333 96.8308 49.67C96.7675 49.9067 96.7358 50.1717 96.7358 50.465C96.7358 50.7717 96.7708 51.045 96.8408 51.285C96.9108 51.5217 97.0092 51.7217 97.1358 51.885C97.2658 52.045 97.4208 52.1683 97.6008 52.255C97.7842 52.3383 97.9892 52.38 98.2158 52.38C98.4325 52.38 98.6108 52.355 98.7508 52.305C98.8908 52.2517 99.0058 52.1933 99.0958 52.13C99.1892 52.0667 99.2658 52.01 99.3258 51.96C99.3892 51.9067 99.4508 51.88 99.5108 51.88C99.5842 51.88 99.6408 51.9083 99.6808 51.965L99.9308 52.29C99.8208 52.4267 99.6958 52.5433 99.5558 52.64C99.4158 52.7367 99.2642 52.8183 99.1008 52.885C98.9408 52.9483 98.7725 52.995 98.5958 53.025C98.4192 53.055 98.2392 53.07 98.0558 53.07C97.7392 53.07 97.4442 53.0117 97.1708 52.895C96.9008 52.7783 96.6658 52.61 96.4658 52.39C96.2658 52.1667 96.1092 51.8933 95.9958 51.57C95.8825 51.2467 95.8258 50.8783 95.8258 50.465C95.8258 50.0883 95.8775 49.74 95.9808 49.42C96.0875 49.1 96.2408 48.825 96.4408 48.595C96.6442 48.3617 96.8925 48.18 97.1858 48.05C97.4825 47.92 97.8225 47.855 98.2058 47.855C98.5625 47.855 98.8758 47.9133 99.1458 48.03C99.4192 48.1433 99.6608 48.305 99.8708 48.515L99.6358 48.835ZM102.138 48.61C102.355 48.38 102.595 48.1967 102.858 48.06C103.122 47.9233 103.425 47.855 103.768 47.855C104.045 47.855 104.288 47.9017 104.498 47.995C104.712 48.085 104.888 48.215 105.028 48.385C105.172 48.5517 105.28 48.7533 105.353 48.99C105.427 49.2267 105.463 49.4883 105.463 49.775V53H104.568V49.775C104.568 49.3917 104.48 49.095 104.303 48.885C104.13 48.6717 103.865 48.565 103.508 48.565C103.245 48.565 102.998 48.6283 102.768 48.755C102.542 48.8817 102.332 49.0533 102.138 49.27V53H101.243V45.635H102.138V48.61Z" fill="#414B5A"/>
<path fill-rule="evenodd" clip-rule="evenodd" d="M203.288 46.1624C202.647 44.8404 201.307 44.0015 199.838 44.0029V44C198.158 43.9987 196.672 45.0915 196.173 46.6962C195.674 48.3008 196.278 50.0435 197.662 50.9955C199.047 51.9475 200.89 51.8872 202.209 50.8467L204.253 52.8913C204.432 53.0447 204.699 53.0346 204.867 52.8681C205.034 52.7016 205.045 52.4346 204.893 52.2545L202.848 50.2099C203.759 49.0566 203.93 47.4843 203.288 46.1624ZM197.045 47.0744C197.383 45.8059 198.525 44.9186 199.838 44.9055C201.032 44.8935 202.114 45.6107 202.568 46.716C203.022 47.8214 202.757 49.0919 201.899 49.9236C200.957 50.8373 199.521 51.0099 198.389 50.3455C197.257 49.6811 196.707 48.343 197.045 47.0744Z" fill="#061432"/>
<path d="M92.8932 88H105.564L106 95.6079L91 97L92.8932 88Z" fill="#154A9D"/>
<path d="M75 99.7444L81.2447 107.339L83.9575 105.712V135H114.365V105.983L116.807 107.213L124 100.704L115.042 90.6606L105.269 87C105.269 96.2284 93.4601 95.6778 93.4601 87L83.0091 90.3837L75 99.7444Z" fill="#2961EB"/>
<path d="M80.803 170H119.391L121 217H101.974L100.901 199.605L99.1607 217H80L80.803 170Z" fill="#FFBD3C"/>
<path d="M81.1191 187L81 186.71C84.0179 185.644 85.5003 181.921 85.6691 175H86C85.8279 182.069 84.2793 185.881 81.1191 187Z" fill="#241F20"/>
<path d="M118.791 187C115.916 185.025 114.668 181.325 115.075 176L115.423 176.022C115.023 181.232 116.219 184.847 119 186.758L118.791 187Z" fill="#241F20"/>
<rect x="82" y="174.795" width="36" height="0.40991" fill="#241F20"/>
<rect x="99.795" y="177" width="0.409926" height="21" fill="#241F20"/>
<path d="M100 193V192.695C101.352 192.695 102.716 191.55 102.716 188.986V177H103V188.982C103 191.76 101.491 193 100 193Z" fill="#241F20"/>
<path d="M158 108C159.857 113.116 160.677 117.939 160.677 124H164.447C163.924 118.217 164.796 113.258 167 109.089L158 108Z" fill="#E59D38"/>
<path d="M160.416 97C157.271 100.549 155.526 106.065 158.625 110.118C165.589 110.55 173.558 114.763 182.608 123L207 122.912C205.922 119.663 204.571 115.504 198.011 115.161C195.464 115.031 191.278 117.866 186.779 115.726C180.021 112.559 168.895 105.495 160.416 97Z" fill="#FFBD3C"/>
<path d="M170.687 169H192.528V173.031C196.142 178.911 195.014 198.121 193.985 217H190.1L189.479 200.881L187.657 217H170.323C168.166 202.778 166.245 179.421 170.702 173.15L170.687 169Z" fill="#2961EB"/>
<rect x="172" y="173" width="19" height="0.40991" fill="#241F20"/>
<path d="M47.1515 254.763L45 273H68C67.4037 268.103 65.1846 264.144 54.3838 265.117L51.6913 254L47.1515 254.763Z" fill="#061432"/>
<path d="M34.8479 254.763L37 273H14C14.5964 268.103 16.8162 264.144 27.6168 265.117L30.31 254L34.8479 254.763Z" fill="#061432"/>
<path d="M15.8182 151H53.3579C63.1191 165.264 57.9749 221.652 54.5045 255.089H44.2405C44.0535 237.641 40.0374 211.663 34.8257 182.938C32.9065 210.182 33.3756 234.962 37.4653 256H27.0081C14.1045 210.633 4.95336 169.509 15.8182 151Z" fill="#FFBD3C"/>
<path d="M38.472 86.2881C39.3212 90.1197 41.0496 92.6237 43 93.4167C42.964 96.1078 40.2844 98.0592 36.8037 99.7879C29.7251 100.59 24.711 98.9949 20 97.0612L27.0695 86L38.472 86.2881Z" fill="#F27553"/>
<path d="M44.1248 94C40.2387 101.556 25.4654 100.785 19.5487 96.4678C7.87513 104.179 -9.21749 135.176 6.03193 146.433C10.3819 149.123 14.1328 148.566 17.3983 145.351L16.4767 151.676C26.4577 155.171 39.5997 154.351 54.1057 151.676L52.5513 142.576C56.0595 146.78 60.56 146.729 65.7609 143.658C78.8016 134.405 65.9667 103.74 44.1248 94Z" fill="#2961EB"/>
<path d="M33 91C39.0751 91 44 84.9558 44 77.5C44 70.0442 39.0751 64 33 64C26.9249 64 22 70.0442 22 77.5C22 84.9558 26.9249 91 33 91Z" fill="#FF9375"/>
<rect x="32" y="103" width="11" height="17" rx="4.25" fill="#FFBD3C"/>
<path d="M24 120.597L28.0512 126C30.8185 123.744 33.8499 121.842 37.0768 120.337L38 115.497C36.8468 114.33 34.2057 114.218 31.3316 114.771C32.5685 113.356 36.8707 112.59 36.8707 111.498C36.7751 110.591 34.6867 110.924 30.1366 112.488C27.9317 113.592 26.3572 117.067 24 120.597Z" fill="#FF9375"/>
<path d="M46.818 125L36.4261 119.727L34.2107 113.656L33 112.27L34.647 111.631C37.6398 113.39 42.7835 115.279 43.5579 114.506C40.3254 112.499 37.7812 110.592 38.2298 110.142C39.0748 109.484 42.5316 111.19 46.8334 113.656C48.9597 115.04 49.6818 117.81 51 120.366L46.818 125Z" fill="#FF9375"/>
<path d="M36.0157 64.8186C26.5683 71.3335 26.9564 93.0327 33.5866 104.155L30.3876 104.703L29.3824 102.357V104.691L24.2156 106.194L23.4548 103.387L22.9507 106.194L12 109V99.3922C12 90.2719 17.124 87.1668 17.124 81.2522C15.9262 65.233 23.2532 56 31.3745 56C43.5168 56 45.3317 65.7876 47.168 75.5417C47.498 79.5335 54 82.5046 54 90.3724C54 93.4014 53.1261 96.5217 51.8826 98.4293C49.1327 96.2566 46.4989 95.248 43.5596 93.4014C40.8372 92.9778 39.4164 90.5096 39.5325 87.8676C47.0519 78.6803 42.2855 69.4991 36.0157 64.8186Z" fill="#061432"/>
<path d="M15.159 168C15.1084 167.999 15.0611 167.973 15.0307 167.931C15.006 167.896 14.9956 167.852 15.0017 167.809C15.0079 167.765 15.0301 167.727 15.0635 167.701C17.9288 165.458 19.7614 161.993 20.6896 157.136C20.6968 157.092 20.7206 157.053 20.7555 157.028C20.7904 157.003 20.8334 156.994 20.8747 157.004C20.9591 157.022 21.0136 157.109 20.997 157.199C20.0539 162.144 18.1765 165.666 15.2516 167.965C15.2252 167.987 15.1927 168 15.159 168Z" fill="#061432"/>
<path d="M54.823 167C54.7832 166.999 54.7448 166.986 54.7139 166.962C50.8329 163.966 48.5864 160.334 48.0008 156.186C47.9918 156.095 48.0587 156.014 48.1522 156.002C48.2457 155.989 48.3323 156.051 48.3482 156.141C48.9206 160.199 51.1373 163.748 54.9355 166.702C55.0098 166.761 55.0216 166.867 54.962 166.939C54.9271 166.978 54.8763 167 54.823 167Z" fill="#061432"/>
<path d="M34.897 180C34.8432 180 34.796 179.951 34.7818 179.88C33.8959 175.073 33.7612 170.066 34.3864 165.183C34.3799 165.114 34.4066 165.047 34.4527 165.016C34.4988 164.986 34.5541 164.999 34.5903 165.048C34.6264 165.098 34.6352 165.173 34.6123 165.236C33.9911 170.075 34.1219 175.037 34.9965 179.803C35.0122 179.89 34.9739 179.977 34.9106 180H34.897Z" fill="#061432"/>
<path d="M19.2283 142C19.186 142 19.1455 141.984 19.1156 141.955C19.0846 141.926 19.0672 141.886 19.0672 141.844C19.0672 141.802 19.0846 141.762 19.1156 141.733C22.7889 138.018 25.7326 133.224 28.6512 126.199L24.458 121.03L16.2847 129.497C16.2292 129.551 16.1414 129.561 16.075 129.519C16.0087 129.477 15.9824 129.397 16.0122 129.326C17.7033 125.698 18.5175 122.28 18.4016 119.165C18.3999 119.123 18.4158 119.082 18.4457 119.051C18.4757 119.02 18.5173 119.002 18.5613 119C18.6512 119 18.7254 119.067 18.7304 119.153C18.8306 122.073 18.1448 125.248 16.6949 128.604L24.3484 120.664C24.3811 120.63 24.4282 120.611 24.4768 120.613C24.5249 120.617 24.5693 120.64 24.5989 120.676L28.9643 126.073C29.0003 126.117 29.0098 126.176 28.9894 126.229C26.0426 133.338 23.0676 138.186 19.3473 141.946C19.3174 141.979 19.2742 141.999 19.2283 142Z" fill="#061432"/>
<path d="M51.5574 140C51.5073 140 51.4601 139.975 51.4308 139.933C48.5692 135.881 47.0972 130.957 47 125.299C47.0002 125.258 47.0149 125.219 47.0412 125.189L51.5427 120.026C51.5769 119.987 51.6273 119.968 51.6777 119.975C51.7281 119.981 51.7722 120.013 51.7959 120.059L53.2679 123.002C52.2728 119.357 51.3778 115.582 51.3896 113.161C51.3888 113.119 51.4046 113.078 51.4334 113.047C51.4622 113.017 51.5016 113 51.5427 113C51.6277 113.002 51.6958 113.073 51.6958 113.161C51.6958 115.895 52.8469 120.393 53.9892 124.445C54.0097 124.499 54.0006 124.561 53.9653 124.606C53.93 124.652 53.8739 124.674 53.8181 124.666C53.7623 124.657 53.7153 124.618 53.6948 124.564L51.6016 120.414L47.2915 125.353C47.3916 130.918 48.8606 135.76 51.6604 139.742C51.6847 139.776 51.6945 139.82 51.6879 139.862C51.6813 139.904 51.6587 139.942 51.6251 139.967C51.6058 139.984 51.5824 139.995 51.5574 140Z" fill="#061432"/>
<path d="M34.4317 83.9994C33.8606 84.0139 33.323 83.7608 33.0169 83.3332C32.9801 83.27 33.0052 83.1924 33.0742 83.1561C33.1432 83.1199 33.2321 83.1375 33.277 83.1964C33.5346 83.5528 33.9893 83.7581 34.466 83.7334C34.9818 83.7355 35.4576 83.4878 35.7065 83.0875C35.727 83.0386 35.7775 83.0047 35.8362 83.0004C35.8948 82.9962 35.9508 83.0224 35.98 83.0676C36.0092 83.1129 36.0062 83.169 35.9723 83.2116C35.6751 83.6988 35.0996 84.0016 34.4746 83.9994H34.4317Z" fill="#061432"/>
<path d="M33.0717 86H32.9242C31.5915 85.9673 30.5174 85.496 30.027 84.74C29.9784 84.6602 29.9971 84.5529 30.0691 84.4979C30.1416 84.4454 30.2393 84.4658 30.2887 84.5437C30.7069 85.1982 31.7178 85.6236 32.9303 85.6531C34.5218 85.6891 36.011 85.0706 36.715 84.0692C36.7401 84.0321 36.778 84.0077 36.82 84.0015C36.8619 83.9954 36.9044 84.008 36.9376 84.0364C37.0071 84.0945 37.0206 84.2026 36.9677 84.2786C36.2276 85.3324 34.7083 86 33.0717 86Z" fill="#061432"/>
<path d="M37.7991 78C37.1852 77.9693 36.5888 77.7031 36.0748 77.23C36.0016 77.1678 35.9781 77.0339 36.0223 76.931C36.0666 76.828 36.1618 76.795 36.235 76.8572C37.5923 78.0123 38.74 77.7583 39.7303 76.079C39.7559 76.0345 39.7932 76.0063 39.8338 76.0009C39.8743 75.9956 39.9147 76.0134 39.9458 76.0503C40.0093 76.1291 40.0182 76.2636 39.9662 76.3575C39.3225 77.4511 38.5943 78 37.7991 78Z" fill="#061432"/>
<path d="M35.1701 75C35.117 74.9995 35.0671 74.9822 35.0346 74.9529C34.978 74.9009 34.9924 74.8269 35.0669 74.7871C36.3928 74.0903 38.0187 73.855 39.906 74.0858C39.9736 74.1094 40.0107 74.1611 39.9973 74.2129C39.9839 74.2646 39.9231 74.304 39.8479 74.3099C38.0671 74.0858 36.5315 74.3099 35.283 74.9664C35.253 74.9873 35.2126 74.9993 35.1701 75Z" fill="#061432"/>
<path d="M28.8528 78C28.2031 77.9815 27.5775 77.8046 27.0653 77.4945C27.0321 77.4768 27.0094 77.4496 27.0023 77.4189C26.9953 77.3882 27.0044 77.3566 27.0277 77.3312C27.051 77.3053 27.0867 77.2877 27.1268 77.2822C27.1669 77.2768 27.2081 77.2839 27.2414 77.3021C28.5005 77.9955 29.6441 77.9083 30.7414 77.0337C30.8009 76.9888 30.8957 76.9888 30.9551 77.0337C30.9838 77.0559 31 77.0861 31 77.1176C31 77.149 30.9838 77.1792 30.9551 77.2014C30.2871 77.7338 29.5863 78 28.8528 78Z" fill="#061432"/>
<path d="M26.1622 75.9992C26.0862 75.9971 26.0213 75.942 26.0043 75.8653C25.9872 75.7887 26.0224 75.7097 26.0898 75.6734C27.7791 74.8687 29.3961 74.784 30.8935 75.4258C30.9497 75.4491 30.9896 75.5017 30.9983 75.5637C31.0069 75.6258 30.9829 75.6878 30.9353 75.7266C30.8878 75.7654 30.8239 75.7749 30.7677 75.7516C29.3583 75.1489 27.8326 75.2303 26.2314 75.9927C26.2089 75.9991 26.1854 76.0013 26.1622 75.9992Z" fill="#061432"/>
<path d="M42.8648 118H42.8235C38.6373 116.941 35.765 115.402 34.0417 113.29C34.0123 113.256 33.9974 113.21 34.0004 113.164C34.0034 113.117 34.024 113.074 34.0575 113.044C34.0912 113.013 34.1352 112.997 34.1799 113C34.2245 113.004 34.2662 113.025 34.2956 113.061C35.9713 115.116 38.7865 116.618 42.9029 117.657C42.9688 117.689 43.0075 117.762 42.9988 117.838C42.9901 117.914 42.9361 117.975 42.8648 117.99V118Z" fill="#061432"/>
<path d="M32.1508 118C32.0703 117.995 32.0057 117.928 32.0004 117.843C31.995 117.758 32.0505 117.683 32.1297 117.667L36.8254 117.001C36.9107 116.992 36.9873 117.056 36.9986 117.146C37.0099 117.236 36.952 117.319 36.8675 117.334L32.1718 118H32.1508Z" fill="#061432"/>
<path d="M32.178 120C32.0915 120 32.0177 119.947 32.003 119.874C31.9943 119.835 32.0047 119.794 32.032 119.761C32.0592 119.728 32.101 119.706 32.1477 119.7L36.8386 119C36.9175 119.006 36.982 119.056 36.9969 119.122C37.0117 119.189 36.9732 119.255 36.9025 119.286L32.2083 119.986L32.178 120Z" fill="#061432"/>
<path d="M43.82 120H43.7712L37.6514 118.349C37.2576 118.212 36.999 117.877 37 117.504C37.0246 116.87 37.439 116.298 38.0813 116.011C38.1641 115.982 38.2585 116.013 38.299 116.083C38.3395 116.153 38.313 116.239 38.2376 116.281C37.7133 116.513 37.3711 116.976 37.342 117.493C37.3394 117.744 37.511 117.972 37.7752 118.067L43.8787 119.71C43.922 119.721 43.9584 119.747 43.9798 119.782C44.0012 119.817 44.0058 119.858 43.9927 119.896C43.9679 119.961 43.8974 120.003 43.82 120Z" fill="#061432"/>
<rect x="34" y="104" width="3" height="2" rx="1" fill="#061432"/>
</g>
<defs>
<clipPath id="clip0_0_2352">
<rect width="223" height="273" fill="white"/>
</clipPath>
</defs>
</svg>
