<svg width="229" height="178" viewBox="0 0 229 178" fill="none" xmlns="http://www.w3.org/2000/svg">
<path d="M96.2413 123L94 152H99.157L107 123H96.2413Z" fill="#FFA04B"/>
<path d="M164.558 152H169L167.732 121L158 121.837L164.558 152Z" fill="#FFA04B"/>
<path d="M157 137H152.58L149 123.501L157 122V137Z" fill="#FFA04B"/>
<path d="M90.718 123.675C105.052 131.999 155.976 129.436 172.88 123.675C188.683 115.561 187.511 83.8892 190 57.298L150.201 38.9417C135.224 35.0936 99.704 37.2711 92.4303 42.784C78.4229 71.7285 64.6118 100.189 90.718 123.675Z" fill="#ACB6C7"/>
<path d="M93.129 123C93.0938 123.001 93.0599 122.986 93.0362 122.959C92.9879 122.909 92.9879 122.828 93.0362 122.777C97.4127 118.523 100.265 114.049 101.756 109.09C101.765 109.058 101.786 109.03 101.815 109.014C101.845 108.999 101.879 108.996 101.91 109.006C101.977 109.027 102.015 109.1 101.995 109.169C100.49 114.167 97.6152 118.682 93.2078 122.965C93.186 122.985 93.1583 122.998 93.129 123Z" fill="#061432"/>
<path d="M170.862 122.988C170.821 122.988 170.783 122.97 170.758 122.939C166.683 117.73 164.145 112.895 163.003 108.158C162.988 108.089 163.033 108.02 163.104 108.003C163.176 107.988 163.246 108.032 163.262 108.101C164.402 112.8 166.925 117.609 170.975 122.795C171.004 122.835 171.008 122.886 170.985 122.929C170.963 122.972 170.918 122.999 170.868 123L170.862 122.988Z" fill="#061432"/>
<path d="M96.8212 110C89.8561 104.421 86.9562 95.6322 84.1516 87.1358C82.8433 83.1752 81.6094 79.4315 80 76.1099L80.2414 76C81.8568 79.339 83.0936 83.0885 84.4139 87.0548C87.2065 95.5194 90.0945 104.27 97 109.801L96.8212 110Z" fill="#061432"/>
<path d="M168.149 110L168 109.786C175.01 105.099 179.449 90.305 183.749 76L184 76.0752C179.686 90.4235 175.22 105.261 168.149 110Z" fill="#061432"/>
<path d="M124.866 110H124.603C112.056 109.977 103.675 108.265 99.6996 104.915C97.91 103.411 97.0037 101.56 97.0037 99.4077C96.9429 96.4211 97.635 94.2975 99.0683 93.0739C100.502 91.8503 102.236 91.9383 103.148 92.0774L103.108 92.3272C102.239 92.1853 100.583 92.1228 99.2363 93.2641C97.8898 94.4054 97.2093 96.4949 97.2643 99.4049C97.2643 101.483 98.133 103.269 99.8704 104.725C103.806 108.033 112.128 109.725 124.611 109.747H124.875C135.184 109.747 148.345 108.586 162.959 106.383L163 106.633C148.365 108.842 135.19 110 124.866 110Z" fill="#061432"/>
<path d="M165.363 105L165.149 104.841C167.315 102.026 168.162 98.7402 167.523 95.5927C166.921 92.5598 164.95 89.9437 162 88.2231L162.139 88C165.152 89.7617 167.162 92.4364 167.788 95.5428C168.439 98.7579 167.577 102.117 165.363 105Z" fill="#061432"/>
<rect x="101" y="97.8715" width="29" height="0.257005" fill="#061432"/>
<rect x="136" y="97.8715" width="27" height="0.257005" fill="#061432"/>
<rect x="104" y="44.8715" width="37" height="0.257005" fill="#061432"/>
<path d="M41.9795 110L29 111.606L30.0908 167.682L51.9268 175L66 174.381L64.1801 115.19L41.9795 110Z" fill="#1A3A7E"/>
<path d="M16.9992 113L15.75 114.177H9.00042L7 170.075L37.1227 178L49 173.913L47.3752 116.807L16.9992 113Z" fill="#FFC14E"/>
<rect x="36.8715" y="122" width="0.257011" height="52" fill="black"/>
<path d="M16.2605 132C16.0432 131.999 15.8261 131.986 15.6101 131.962H15.5784C13.9753 131.373 12.896 130.373 12.378 129.019C11.4541 126.614 12.2139 123.112 14.7668 118L14.997 118.118C12.4787 123.159 11.7218 126.594 12.6169 128.922C13.1061 130.199 14.1279 131.135 15.6532 131.709C19.7401 132.156 23.1363 128.103 25.7554 119.66L26 119.739C23.4759 127.877 20.2035 131.997 16.2605 132Z" fill="black"/>
<path d="M200.688 110.291L204 115.741L199.959 120L194.077 117.568L194.202 115.011L193 111.485V106L197.874 107.584L200.688 110.291Z" fill="#FF9375"/>
<path d="M205.149 55.5275L198.848 53L194 60.9449L200.752 64.4338L205.149 66L208 59.4986L205.149 55.5275Z" fill="#FF9375"/>
<path d="M194.084 115L187 123.25L215.327 137C218.51 132.097 217.77 124.922 207.636 122.652L203.85 115.717C200.158 117.191 196.874 117.06 194.084 115Z" fill="#061432"/>
<path d="M200 64.3682L205.727 76L229 54.59C224.492 48.5277 215.963 50.6306 211.576 57.256L204.508 55.203C206.458 60.2856 203.654 65.2979 200 64.3682Z" fill="#061432"/>
<path d="M129 69.8582C142.069 52.9679 150.595 31.6215 158.942 30.1294C167.27 28.4648 184.348 43.2219 201 53.4423L194.108 63.6742L167.494 53.4423C167.807 59.5573 167.701 65.6866 161.553 72L129 69.8582Z" fill="#1F57C7"/>
<path d="M125 92.8264C135.102 93.5738 146.706 92.8264 160.895 91.3835C171.286 90.1714 182.111 71.272 185.446 73.3123C187.583 75.4478 183.867 97.2649 193.342 112L201 110.805C197.891 86.2092 200.968 63.1887 192.147 59.7603C180.659 53.9713 166.3 63.9997 138.642 67.7195L129.205 74.2675L125 92.8264Z" fill="#2961EB"/>
<path d="M56.442 16H48.4211L21 22.1847L28.369 71L74 60.0663L56.442 16Z" fill="#2961EB"/>
<path d="M31 21C32.579 16.737 34.8029 12.6977 37.6069 9L40 9.6248C39.036 12.0679 38.6321 15.5814 38.5189 19.6411L37.0469 20.1595L38.1853 10.1403C35.7372 13.6341 33.8245 17.226 32.83 20.9944L31 21Z" fill="#2961EB"/>
<path d="M42.676 10.7745C42.7668 13.8663 42.5401 16.9595 42 20H43.3968C43.9751 17.3133 44.0672 13.882 43.9024 10.0623H44.7405C45.7099 12.2076 46.4166 14.9856 46.9307 18.2844L47.9978 18.1667C48.0425 14.6354 47.4056 11.5102 45.763 9L42.7319 9.26779L42.676 10.7745Z" fill="#2961EB"/>
<path d="M4.46784 47L14.3605 48.3014L35 49.4951L34.363 90.4802L11.9152 92L0 87.988L4.46784 47Z" fill="#FF1600"/>
<path d="M19.1339 35C15.3101 35 15.0268 43.8394 12 49.9554L13.4468 51C15.5156 47.3542 15.5683 40.7989 17.1706 39.1171L19.6532 51H21L19.1339 35Z" fill="#FF1600"/>
<path d="M18 51.0769L23.3983 39H24.6435L29 51.0769H26.7187L23.5014 41.45L19.5627 52L18 51.0769Z" fill="#FF1600"/>
<path d="M35.4507 31.6687L27.4293 29.1474C24.001 28.3295 20.2391 30.9567 18.3265 35.9994C17.3401 39.4915 18.6602 41.5568 21.3234 42.7925C23.5725 43.7486 27.6968 41.4156 27.6968 35.4874L33.1067 38.7384H36L35.4507 31.6687Z" fill="#FF9375"/>
<path d="M59 7.56798C54.5519 4.15177 49.7918 -0.400313 47.1508 0.028152C44.7707 0.603273 43.0459 1.98644 42.1835 4.4192C39.3297 3.86996 37.8291 5.23875 37.0064 7.58236C36.8589 9.85697 39.2758 10.8951 42.3963 11.6082C44.2969 11.6082 46.8387 9.75919 48.9464 7.75202C50.8471 7.75202 53.6271 10.7714 57.0823 13L59 7.56798Z" fill="#FF9375"/>
<path d="M99 47.9929C93.501 32.2359 73.7242 11.9457 59.749 7C56.2986 8.0843 54.4588 10.1058 55.1406 13.5635L86.512 50L99 47.9929Z" fill="#EEA843"/>
<path d="M82.2001 36C83.5092 39.1356 85.3385 42.1999 89 45.0875L80.8676 52L74.62 50.15L70 38.7479L82.2001 36Z" fill="#F27553"/>
<path d="M82.2303 23.0465C87.3397 28.0457 88.0864 35.1833 85.6926 37.5211C81.9528 41.1824 73.0624 42.6764 68.691 38.388C63.5846 33.3888 62.4747 24.2775 66.2145 20.6162C73.3487 13.6375 77.1239 18.0472 82.2303 23.0465Z" fill="#FF9375"/>
<path d="M76.0024 17.7147C72.2878 17.9557 69.5989 20.26 69.0817 23.3993C68.5645 26.5387 70.1847 31.1329 68.9589 34.9437C67.9931 37.9425 72.3306 39.3801 72.925 44.7004L80 68.7562C76.8568 74.6303 76.4739 82.3782 76.7168 92L70.1447 90.5853L69.3446 87.4086L68.0445 89.2165H64.1355L65.4328 84.0742L62.261 88.2695L58.7921 85.2306L61.3952 81.3107L57.3463 84.7944L52 82.1831C53.3001 76.0852 60.2866 68.696 60.2866 58.9766L58.6435 42.9069C57.7292 38.5107 54.7403 29.0984 58.2092 22.9459C62.804 15.2353 71.2248 14.6815 76.0024 17.7147Z" fill="#061432"/>
<path d="M71.7569 39.3554C72.3456 38.0954 71.1043 36.2712 68.9846 35.2809C66.8648 34.2907 64.6692 34.5094 64.0806 35.7694C63.4919 37.0293 64.7332 38.8535 66.853 39.8438C68.9727 40.834 71.1683 40.6153 71.7569 39.3554Z" fill="#FF9375"/>
<path d="M35.6503 31C32.8932 32.4787 30.6211 39.1035 32.9943 41.5057C41.8834 49.9803 59.2979 59.4164 80.8092 69.3172L91.7798 85.4511C95.9718 91.4565 111.267 93.6336 124.981 92.8446C133.079 83.9491 140.882 72.596 138.596 67.4206C129.99 66.8595 119.585 64.6561 114.345 59.3609C112.283 53.9868 109.437 49.6706 105.046 47.4759C100.779 45.4449 97.7069 47.8938 89.0949 44.1153C87.3916 46.719 82.7435 47.4993 80.8525 47.8412C67.4394 43.5483 48.896 31 35.6503 31Z" fill="#FFBF46"/>
<path d="M72.1007 28C72.0428 27.9885 72 27.9225 72 27.8449C72 27.7673 72.0428 27.7014 72.1007 27.6898C73.7404 27.5504 74.6128 26.7175 74.7679 25.1354C74.773 25.0806 74.7998 25.0336 74.8382 25.0122C74.8765 24.9907 74.9206 24.998 74.9538 25.0313C74.987 25.0646 75.0043 25.1189 74.9991 25.1737C74.8309 26.9162 73.8613 27.8536 72.1086 28H72.1007Z" fill="#061432"/>
<path d="M78.3139 22.9972C78.2502 23.0009 78.1861 23.0009 78.1223 22.9972C78.0841 22.9933 78.0499 22.9786 78.0272 22.9564C78.0046 22.9343 77.9955 22.9066 78.0021 22.8796C78.0076 22.8525 78.0284 22.8282 78.0596 22.8121C78.0908 22.7961 78.1298 22.7896 78.1678 22.7942C78.613 22.8182 79.0544 22.7208 79.4022 22.522C79.5926 22.4183 79.7062 22.2587 79.7109 22.0884C79.7216 22.0376 79.7831 22 79.8554 22C79.9278 22 79.9892 22.0376 80 22.0884C79.9952 22.3182 79.8448 22.5343 79.5907 22.6766C79.2274 22.8817 78.778 22.9945 78.3139 22.9972Z" fill="#061432"/>
<path d="M71.1085 26.9979C71.0965 27.0007 71.0841 27.0007 71.072 26.9979C71.0155 26.9718 70.9864 26.8964 71.0062 26.8274C71.3352 25.7751 72.1417 23.888 73.8573 23.0062C73.9117 22.9854 73.9702 23.0185 73.9918 23.0822C74.0134 23.1458 73.9909 23.2189 73.9401 23.2502C72.3026 24.082 71.5277 25.9103 71.2109 26.9244C71.1908 26.9701 71.1514 26.9984 71.1085 26.9979Z" fill="#061432"/>
<path d="M77.0954 22C77.0554 21.9993 77.0197 21.9573 77.0059 21.8945C76.9921 21.8317 77.003 21.7612 77.0333 21.7173C77.2735 21.3499 77.5705 21.102 77.8907 21.0017C77.9428 20.9889 77.9913 21.049 77.999 21.1359C78.0067 21.2229 77.9707 21.3038 77.9186 21.3166C77.6327 21.4037 77.3671 21.6217 77.1512 21.9463C77.1371 21.9748 77.1173 21.9939 77.0954 22Z" fill="#061432"/>
<path d="M81.4773 28.9971C81.4554 29.001 81.4327 29.001 81.4108 28.9971C81.3378 28.968 81.3082 28.8981 81.3443 28.8404C81.7399 28.216 81.8197 27.7196 81.5837 27.3251C81.2912 26.8365 80.5066 26.489 79.1137 26.2304C79.0341 26.2149 78.9852 26.152 79.004 26.0893C79.0127 26.0594 79.0362 26.0336 79.0693 26.0174C79.1024 26.0012 79.1423 25.996 79.1802 26.0031C80.6695 26.28 81.5072 26.6693 81.8397 27.2284C82.1156 27.6908 82.0358 28.2525 81.597 28.9449C81.5702 28.9765 81.5256 28.9959 81.4773 28.9971Z" fill="#061432"/>
<path d="M80.5653 34C80.4173 33.9994 80.2694 33.9909 80.1223 33.9744C80.0472 33.9644 79.9933 33.895 80.0007 33.8176C80.0089 33.7392 80.077 33.6822 80.1535 33.6896C81.9222 33.8912 83.8969 32.7682 84.736 31.0788C84.7708 31.0085 84.8542 30.98 84.9231 31.0148C84.9917 31.0505 85.0195 31.1361 84.9855 31.2068C84.106 32.8825 82.42 33.9478 80.5653 34Z" fill="#061432"/>
<path d="M21.5 55C22.3284 55 23 54.3284 23 53.5C23 52.6716 22.3284 52 21.5 52C20.6716 52 20 52.6716 20 53.5C20 54.3284 20.6716 55 21.5 55Z" fill="#061432"/>
<path d="M28.5 55C29.3284 55 30 54.3284 30 53.5C30 52.6716 29.3284 52 28.5 52C27.6716 52 27 52.6716 27 53.5C27 54.3284 27.6716 55 28.5 55Z" fill="#061432"/>
<path d="M11.1186 80.9994C11.0839 80.9973 11.0516 80.9814 11.0293 80.9555C11.0071 80.9296 10.9968 80.896 11.0009 80.8625L13.7375 53.115C13.7405 53.0811 13.7575 53.0498 13.7846 53.0283C13.8118 53.0068 13.8468 52.9969 13.8817 53.0009C13.9538 53.0084 14.0063 53.0707 13.9994 53.1406L11.2598 80.8853C11.2569 80.9187 11.2403 80.9495 11.2137 80.9709C11.1872 80.9923 11.153 81.0026 11.1186 80.9994Z" fill="black"/>
</svg>
