<svg width="147" height="213" viewBox="0 0 147 213" fill="none" xmlns="http://www.w3.org/2000/svg">
<path d="M35.5145 189L32.2403 200.165C26.4723 199.501 17.954 206.813 20.4452 213L46 203.622L41.5416 190.196L35.5145 189Z" fill="#061432"/>
<path d="M131 163.168L134.79 171.383C132.896 178.794 135.168 185.544 143 183.69L141.45 160.281L136.178 160L131 163.168Z" fill="#061432"/>
<path d="M61.841 94.8884C51.3088 121.527 41.7544 153.163 34 190.424C36.6057 192.874 39.9572 194.105 44.1416 193.993C52.9995 166.198 64.7145 142.415 80.1359 123.827C93.4268 141.778 111.921 155.894 132.835 168.226C135.608 166.642 137.916 164.415 139 160.494C117.124 148.206 107.977 120.857 99.7773 92L61.841 94.8884Z" fill="#2961EB"/>
<path d="M61.2013 23.4807L55.3985 16L45 32.7523V35.6672L56.961 43L70 32.1823L61.2013 23.4807Z" fill="#F27553"/>
<path d="M48.2049 35.0545C53.9459 34.1426 57.4806 26.38 56.0998 17.7161C54.719 9.05223 48.9455 2.76794 43.2045 3.67976C37.4634 4.59159 33.9287 12.3542 35.3095 21.0181C36.6904 29.682 42.4638 35.9663 48.2049 35.0545Z" fill="#FF9375"/>
<path d="M47 9L50.0346 19.6025L60 22L59.9084 16.5773L47 9Z" fill="#061432"/>
<path d="M60.4827 21C57.8501 16.9319 52.1008 13.63 47.5811 10.9839C43.7629 12.2589 39.9612 12.5134 36.1842 10.9839L35.1554 17.0846C28.7128 17.0139 25.376 14.1332 26.0967 10.0539C27.0595 4.61472 32.4237 8.22197 35.6973 6.46358C38.3024 2.66409 45.8756 -1.98632 53.3029 0.900048C61.1182 4.13131 64.0809 11.9451 60.4827 21Z" fill="#FF1600"/>
<path d="M21.8826 42.9986L15.7008 44.6717L21.0665 21.5436C23.7166 21.2122 25.8619 20.1744 27.4257 18.3534L31.1621 12.1592C31.3712 11.8131 31.4194 11.3927 31.294 11.0081C31.1687 10.6234 30.8823 10.3128 30.5098 10.1575C29.985 9.93625 29.3775 10.1132 29.0524 10.5819L26.828 13.7666C27.3357 8.43232 21.3422 5.86922 17.0599 10.1657C13.9513 13.2902 15.1031 18.0193 13.9131 20.9576C6.76784 34.2276 -1.98495 48.6697 0.400441 54.8502C3.38081 59.9955 12.7204 62 27.6932 62L32 58.6373V47.6839L21.8826 42.9986Z" fill="#FF9375"/>
<path d="M22 42.5375C25.5182 48.5169 27.6862 54.7917 27.8371 61.507H41.5476C49.3606 77.6645 57.9502 88.0205 59.5666 99.197C71.024 101.807 88.7219 97.7801 99.6634 91.1032L90.6841 44.6957L106 35.959V19C88.9113 19 71.2573 26.4319 61.0814 22.6106C62.7445 28.6666 62.3383 33.6422 58.543 36.2025C55.5435 38.0269 48.798 36.9328 45.5707 35.0181L22 42.5375Z" fill="#FF1600"/>
<path d="M80 48.2869L136.66 33L147 78.5489L104.923 88L88.3386 86.6627L80 48.2869Z" fill="#FFBD3C"/>
<path d="M106 19V36.0372L116.876 30.959C120.566 30.0962 126.901 32.6847 132.293 36.0235C131.898 41.0027 131.727 47.0757 132.293 48.2271C132.859 49.3785 134.19 49.5708 134.19 49.5708C134.209 55.2206 135.512 60.6972 137.783 63H140.148C141.663 61.4721 144.405 39.5931 142.134 36.2351C138.043 30.033 129.175 20.984 123.501 20.1184L106 19Z" fill="#FF9375"/>
<path d="M54 23C55.6569 23 57 20.7614 57 18C57 15.2386 55.6569 13 54 13C52.3431 13 51 15.2386 51 18C51 20.7614 52.3431 23 54 23Z" fill="#FF9375"/>
<path d="M58.1633 37.9999C58.1197 37.9993 58.078 37.983 58.0468 37.9542C57.9844 37.8936 57.9844 37.797 58.0468 37.7365C60.7625 35.1666 63.873 33.3092 66.3728 31.8226C68.7731 30.3899 70.6707 29.2582 70.6707 28.3281C70.736 26.476 69.4038 25.4895 66.6 25.3094C66.5565 25.3073 66.5158 25.2888 66.4869 25.2579C66.458 25.227 66.4435 25.1865 66.4466 25.1454C66.4542 25.0599 66.5322 24.9956 66.6228 25.0002C69.5969 25.1911 71.0712 26.3147 70.9974 28.3335C70.9974 29.4249 69.131 30.5404 66.5489 32.0834C64.0633 33.5672 60.967 35.4166 58.2798 37.9596C58.248 37.9869 58.2062 38.0013 58.1633 37.9999Z" fill="#061432"/>
<path d="M49.0653 45C48.812 45.0016 48.5602 44.9577 48.3196 44.8701C48.3049 44.8645 48.2911 44.8563 48.2787 44.8459C47.1424 43.9638 46.7682 41.4476 47.137 37.1581C47.1404 37.1118 47.1606 37.069 47.193 37.0394C47.2254 37.0098 47.2673 36.996 47.309 37.001C47.3956 37.0106 47.459 37.0955 47.4511 37.1913C47.1015 41.2633 47.4347 43.7373 48.4398 44.5468C50.237 45.1812 53.0995 42.961 56.7267 38.1187C56.7842 38.0518 56.8787 38.0457 56.9429 38.1047C57.007 38.1636 57.0188 38.2675 56.9698 38.3422C54.6127 41.4747 51.4416 45 49.0653 45Z" fill="#061432"/>
<path d="M60.8731 51C60.8151 50.9991 60.7646 50.9516 60.7489 50.8834C59.7916 46.7341 59.2052 42.4699 59.0002 38.1658C58.9964 38.0799 59.0497 38.0062 59.1199 38.0004C59.1538 37.9974 59.1872 38.0113 59.2126 38.0388C59.2381 38.0664 59.2534 38.1053 59.2551 38.1468C59.4592 42.4289 60.0425 46.6713 60.995 50.7994C61.0045 50.8393 61.0004 50.8822 60.9837 50.9184C60.9671 50.9547 60.9391 50.9811 60.9063 50.9919L60.8731 51Z" fill="#061432"/>
<path d="M49.8415 38.9998C49.8165 39.0012 49.7916 38.995 49.7689 38.9817L47.1044 37.4033C47.047 37.374 47.0073 37.3078 47.0009 37.231C46.9945 37.1542 47.0226 37.0792 47.074 37.036C47.1254 36.9927 47.1917 36.9881 47.2467 37.024L49.9053 38.6061C49.9883 38.6564 50.0233 38.7805 49.9837 38.8842C49.9561 38.9514 49.902 38.9953 49.8415 38.9998Z" fill="#061432"/>
<path d="M63.2487 32C63.1624 31.9986 63.0829 31.9674 63.0377 31.917C62.9924 31.8665 62.9876 31.8039 63.0249 31.7505C64.3033 30.0421 64.7639 28.1013 64.3415 26.2035C64.3288 26.158 64.3436 26.1108 64.3824 26.0729C64.4213 26.0349 64.481 26.0094 64.5478 26.0021C64.6867 25.9875 64.8172 26.0516 64.8418 26.1464C65.2805 28.1164 64.8013 30.131 63.4725 31.9038C63.43 31.962 63.3437 31.999 63.2487 32Z" fill="#061432"/>
<path d="M79.8199 122C79.7577 122 79.6997 121.972 79.667 121.926C76.2057 117.055 73.6204 111.745 72.002 106.182C71.9883 106.101 72.0468 106.025 72.1371 106.005C72.2275 105.985 72.3202 106.029 72.3515 106.106C73.9619 111.636 76.5325 116.915 79.9729 121.759C79.9982 121.795 80.0062 121.838 79.9951 121.879C79.984 121.92 79.9546 121.956 79.9136 121.978C79.8855 121.993 79.8529 122.001 79.8199 122Z" fill="#061432"/>
<path d="M100.975 48.9942C100.946 48.9934 100.918 48.9865 100.892 48.974C100.851 48.9512 100.821 48.9125 100.81 48.8672L99.0051 41.9386C98.9826 41.8502 99.0363 41.7604 99.126 41.7365C99.2179 41.7145 99.3109 41.7683 99.3354 41.8577L101.105 48.6247L107.622 46.4595L106.192 40.2035C106.178 40.1457 106.197 40.0852 106.241 40.0447C106.285 40.0042 106.348 39.9899 106.406 40.0072C106.464 40.0245 106.508 40.0707 106.522 40.1284L107.996 46.5317C108.014 46.6146 107.966 46.6977 107.884 46.7251L101.049 49L100.975 48.9942Z" fill="#061432"/>
<path d="M91.1542 85C91.0752 84.9975 91.01 84.9411 91.001 84.8674C90.9921 84.7937 91.042 84.725 91.1184 84.7059L134.809 75.0029C134.894 74.987 134.977 75.0372 134.996 75.1161C135.015 75.195 134.964 75.2741 134.881 75.2945L91.19 84.9948L91.1542 85Z" fill="#061432"/>
<path d="M136.834 74C136.755 73.9993 136.687 73.9471 136.67 73.8738L129.008 36.2085C128.988 36.15 129.005 36.0857 129.052 36.0434C129.099 36.0012 129.167 35.9885 129.227 36.0109C129.287 36.0333 129.328 36.0867 129.333 36.1481L136.997 73.8135C137.013 73.8989 136.954 73.9806 136.865 73.9973L136.834 74Z" fill="#061432"/>
<path d="M144.845 77.9909C144.829 77.994 144.813 77.994 144.798 77.9909L137.111 75.34C137.028 75.311 136.982 75.2139 137.007 75.1219C137.034 75.0315 137.121 74.9808 137.204 75.0068L144.891 77.6577C144.965 77.6847 145.01 77.766 144.998 77.8505C144.987 77.9349 144.922 77.998 144.845 78V77.9909Z" fill="#061432"/>
<path d="M47.8414 10.9999C47.8129 11.0008 47.7847 10.9926 47.7607 10.9762C44.1816 8.6902 40.2403 7.11823 36.1305 6.3376C36.0441 6.31966 35.9872 6.23145 36.0025 6.13927C36.0099 6.09473 36.0338 6.05523 36.0689 6.02963C36.1039 6.00403 36.1472 5.99447 36.1889 6.0031C40.3367 6.78808 44.3143 8.37426 47.9249 10.6832C47.9852 10.7238 48.0132 10.8016 47.994 10.8746C47.9747 10.9477 47.9127 10.9986 47.8414 10.9999Z" fill="#061432"/>
<path d="M36.8358 11C33.9329 10.9838 31.1454 9.66868 29.0453 7.3245C28.9838 7.24902 28.9851 7.12996 29.0481 7.05625C29.1111 6.98254 29.2129 6.98109 29.2774 7.05298C31.3142 9.32867 34.0191 10.6049 36.8358 10.6192C36.8791 10.6183 36.9209 10.6378 36.9517 10.6733C36.9826 10.7088 37 10.7573 37 10.8079C37 10.914 36.9265 11 36.8358 11Z" fill="#061432"/>
<path d="M37.1263 22.9998C36.6899 22.9965 36.2622 22.8646 35.8874 22.6177C35.3549 22.3044 35.016 21.699 35 21.0327C35 19.3976 36.0376 18.7805 37.1348 18.1227L37.3077 18.0225C37.3456 17.9992 37.3904 17.9937 37.432 18.0073C37.4736 18.0208 37.5085 18.0523 37.5289 18.0945C37.5499 18.1364 37.5549 18.1859 37.5426 18.2318C37.5304 18.2778 37.5019 18.3163 37.4637 18.3389L37.2907 18.4422C36.2361 19.0687 35.3289 19.6137 35.3289 21.0327C35.3486 21.5708 35.6262 22.0566 36.0575 22.3076C36.5661 22.6643 37.1989 22.7296 37.7585 22.483C37.7964 22.4597 37.8412 22.4542 37.8827 22.4678C37.9243 22.4813 37.9592 22.5128 37.9796 22.555C38.0007 22.5969 38.0057 22.6464 37.9934 22.6923C37.9811 22.7382 37.9527 22.7768 37.9144 22.7994C37.6701 22.9352 37.3998 23.004 37.1263 22.9998Z" fill="#061432"/>
<path d="M38.1738 28.9939C38.0895 28.9926 38.0177 28.9318 38.002 28.8486C37.9876 28.7533 38.0521 28.6642 38.1467 28.6487C41.7142 28.0429 44.3838 26.0682 45.6644 23.1061C45.6823 23.0631 45.7167 23.0292 45.7598 23.0121C45.803 22.9949 45.8511 22.9961 45.8934 23.0152C45.9368 23.0325 45.9711 23.067 45.9882 23.1106C46.0053 23.1542 46.0037 23.203 45.9838 23.2454C44.655 26.3196 41.892 28.3609 38.2039 29L38.1738 28.9939Z" fill="#061432"/>
<path d="M39.1624 17C39.1147 16.9997 39.0694 16.9724 39.0379 16.9249C38.9805 16.8322 38.9893 16.6958 39.0577 16.6172C40.6627 14.8385 42.2932 14.527 43.9039 15.6828C43.9594 15.7154 43.9964 15.7864 43.9998 15.8668C44.0031 15.9471 43.9721 16.0231 43.9196 16.0634C43.8672 16.1038 43.802 16.1018 43.7511 16.0581C42.2451 14.9811 40.7788 15.2701 39.2671 16.9475C39.2382 16.9813 39.201 17 39.1624 17Z" fill="#061432"/>
<path d="M37.1557 14C37.1146 13.9991 37.0753 13.9786 37.0462 13.9429C37.0166 13.907 37 13.8581 37 13.807C37 13.756 37.0166 13.7071 37.0462 13.6711C38.4393 11.9296 40.4099 11.5471 42.9006 12.5336C42.9781 12.5719 43.0181 12.6773 42.9921 12.7747C42.9661 12.872 42.883 12.928 42.802 12.9027C40.4373 11.9632 38.5762 12.3155 37.2707 13.9429C37.2402 13.9803 37.1987 14.0009 37.1557 14Z" fill="#061432"/>
<path d="M69.1506 46C69.0806 45.998 69.0205 45.946 69.0042 45.8734C68.988 45.8008 69.0195 45.7256 69.0812 45.6901L77.8082 41.0048C77.8776 40.9866 77.9496 41.0214 77.9825 41.0888C78.0155 41.1563 78.0008 41.239 77.947 41.2891L69.22 45.9829C69.1985 45.9943 69.1747 46.0001 69.1506 46Z" fill="#061432"/>
<path d="M46.2167 155H46.1643C46.1083 154.99 46.06 154.965 46.0304 154.93C46.0008 154.894 45.9924 154.852 46.007 154.812L47.5754 150.12C47.5879 150.08 47.6223 150.045 47.6708 150.023C47.7194 150.001 47.7781 149.995 47.8337 150.004C47.9493 150.025 48.0206 150.109 47.9947 150.192L46.4263 154.884C46.4009 154.953 46.3149 155 46.2167 155Z" fill="#061432"/>
<path d="M48.2475 155H48.1874C48.0551 154.974 47.9747 154.871 48.0072 154.77L49.5049 150.163C49.5188 150.091 49.5847 150.031 49.6749 150.009C49.7651 149.987 49.8639 150.006 49.9298 150.058C49.9958 150.11 50.0174 150.187 49.9855 150.255L48.4878 154.862C48.4559 154.943 48.3585 154.999 48.2475 155Z" fill="#061432"/>
<path d="M106.825 143C106.775 142.999 106.728 142.975 106.696 142.933L103.032 138.291C102.98 138.214 102.992 138.106 103.059 138.044C103.126 137.982 103.226 137.986 103.289 138.054L106.959 142.696C106.988 142.733 107.003 142.781 107 142.83C106.996 142.879 106.975 142.924 106.941 142.956C106.908 142.985 106.867 143.001 106.825 143Z" fill="#061432"/>
<path d="M106.829 139.987C106.784 139.988 106.741 139.971 106.712 139.94L105.038 138.223C105.011 138.196 104.997 138.161 105 138.125C105.003 138.09 105.023 138.056 105.054 138.033C105.085 138.01 105.125 137.998 105.166 138C105.207 138.003 105.245 138.02 105.272 138.047L106.946 139.765C106.998 139.803 107.014 139.866 106.987 139.92C106.96 139.974 106.896 140.006 106.829 139.999V139.987Z" fill="#061432"/>
<path d="M136.134 50C136.092 50.0012 136.052 49.9761 136.027 49.933C136.006 49.8979 135.996 49.8536 136.001 49.8099C136.006 49.7662 136.025 49.7267 136.053 49.7002C136.67 49.118 137.214 46.3179 137.734 41.1455C137.744 41.0539 137.811 40.9894 137.884 41.0014C137.957 41.0135 138.008 41.0976 137.999 41.1892C137.472 46.5275 136.903 49.3159 136.215 49.9679C136.192 49.9894 136.163 50.0006 136.134 50Z" fill="#F27553"/>
<path d="M137.148 61.9999C137.116 62.0005 137.084 61.9902 137.058 61.9705C136.994 61.918 136.981 61.8226 137.029 61.7544C138.013 60.4198 138.702 55.653 138.702 50.1548C138.702 50.0693 138.769 50 138.852 50C138.892 50 138.93 50.0164 138.958 50.0455C138.985 50.0746 139.001 50.114 139 50.1548C139 55.8024 138.303 60.54 137.268 61.9412C137.24 61.9797 137.195 62.0016 137.148 61.9999Z" fill="#F27553"/>
<path d="M139.136 61.9999C139.103 62.0011 139.071 61.9878 139.047 61.9628C139.02 61.9366 139.003 61.899 139 61.8586C138.998 61.8182 139.009 61.7783 139.033 61.7478C139.999 60.4608 140.389 56.4616 140.732 52.1255C140.745 52.0472 140.808 51.9931 140.878 52.0007C140.947 52.0083 141 52.0751 141 52.1547C140.652 56.5412 140.256 60.5908 139.238 61.9469C139.212 61.9801 139.175 61.9994 139.136 61.9999Z" fill="#F27553"/>
<path d="M18.5824 15C18.4115 14.9967 18.2547 14.8871 18.1692 14.7113C17.7852 13.9897 18.0769 11.8999 18.8206 10.0553C18.863 9.99943 18.9317 9.98402 18.9884 10.0177C19.0451 10.0513 19.0759 10.1258 19.0637 10.1997C18.3078 12.073 18.106 13.9868 18.3977 14.5295C18.4298 14.6095 18.4981 14.6602 18.5727 14.6594C19.0272 14.6594 19.5206 13.4182 19.7248 12.6388C19.7491 12.5512 19.8278 12.5026 19.9022 12.5291C19.9747 12.558 20.0154 12.6495 19.9946 12.7369C19.9435 12.9708 19.3918 15 18.5824 15Z" fill="#F27553"/>
<path d="M19.5532 15C19.4987 15 19.4443 14.9939 19.391 14.9819C19.361 14.9731 19.3336 14.9565 19.3112 14.9337C18.7418 14.3306 18.9468 12.6239 19.9831 9.4155C19.9961 9.37113 20.0257 9.33435 20.065 9.31381C20.1043 9.29327 20.1499 9.29079 20.191 9.30695C20.2762 9.33835 20.3218 9.43636 20.2935 9.52707C19.3682 12.3977 19.1034 14.1195 19.5105 14.6532C20.0486 14.7166 21.0195 13.7667 22.6821 9.11396C22.6975 9.07026 22.7286 9.03485 22.7687 9.0156C22.8088 8.99635 22.8545 8.99486 22.8956 9.01144C22.9793 9.04774 23.0209 9.14771 22.9896 9.2376C21.5889 13.1516 20.4899 15 19.5532 15Z" fill="#F27553"/>
<path d="M21.8668 14.997H21.8441C21.551 14.9343 21.3093 14.7448 21.1961 14.489C20.8203 13.7582 21.0276 12.4659 21.4553 11.7173C21.4774 11.6503 21.5414 11.6023 21.6173 11.5956C21.6932 11.5889 21.766 11.6249 21.8015 11.6868C21.837 11.7487 21.8283 11.8241 21.7793 11.8777C21.3516 12.6204 21.235 13.7731 21.5266 14.3435C21.5889 14.4908 21.7196 14.6051 21.883 14.6554C22.5311 14.59 23.5387 13.7374 24.6307 10.1249C24.659 10.0343 24.7615 9.98132 24.8607 10.0061C24.9609 10.0307 25.0204 10.1251 24.9936 10.217C24.041 13.3572 23.0236 14.9198 21.883 15L21.8668 14.997Z" fill="#F27553"/>
<path d="M24.8072 15H24.7536C23.7687 14.7381 24.0029 13.0516 24.0819 12.4964C24.0881 12.4435 24.1115 12.3961 24.1467 12.3651C24.1818 12.3341 24.2258 12.3222 24.2682 12.3323C24.3568 12.3502 24.4172 12.453 24.4036 12.5628C24.144 14.4274 24.6407 14.56 24.8044 14.6054C25.4309 14.6753 26.3058 11.4943 26.6839 10.136C26.7133 10.0315 26.8051 9.97555 26.89 10.0103C26.9748 10.0482 27.0198 10.1627 26.9916 10.2687C26.159 13.2541 25.5297 15 24.8072 15Z" fill="#F27553"/>
<path d="M26.1755 15C26.0832 14.9981 26.0078 14.9447 26.0006 14.8761C25.9934 14.8076 26.0567 14.7461 26.1475 14.7335C27.2708 14.6014 28.0923 14.0614 28.6555 13.0812C28.6739 13.0483 28.7095 13.0223 28.754 13.0092C28.7986 12.9961 28.8483 12.997 28.892 13.0116C28.9827 13.0413 29.0244 13.1199 28.9853 13.1878C28.3785 14.2422 27.4295 14.8517 26.2035 14.9977L26.1755 15Z" fill="#F27553"/>
<path d="M61 43C61.5523 43 62 42.5523 62 42C62 41.4477 61.5523 41 61 41C60.4477 41 60 41.4477 60 42C60 42.5523 60.4477 43 61 43Z" fill="#061432"/>
<path d="M63 47C63.5523 47 64 46.5523 64 46C64 45.4477 63.5523 45 63 45C62.4477 45 62 45.4477 62 46C62 46.5523 62.4477 47 63 47Z" fill="#061432"/>
<path d="M89 70.8019L90.4996 79L105 75.4374L103.625 67L89 70.8019Z" fill="#061432"/>
</svg>
