<svg width="170" height="196" viewBox="0 0 170 196" fill="none" xmlns="http://www.w3.org/2000/svg">
<path d="M125.18 183.309L128.882 190.709L103.759 195.214C101.215 189.691 107.491 183.396 114.401 187.256L117.62 183.309L120.032 181.799L125.18 183.309Z" fill="#FD1701"/>
<path d="M164.758 178.825L169.959 188.506L144.646 194.065C142.555 187.256 149.634 182.538 156.793 186.446L156.07 180.896L159.448 177.839L164.758 178.825Z" fill="#FD1701"/>
<path d="M116.392 88.2353C115.982 117.913 116.339 149.474 117.62 183.309C119.979 183.849 122.309 182.623 125.171 183.309C129.248 153.943 132.605 126.667 133.801 105.665V99.4466L129.683 86.4575L116.392 88.2353Z" fill="#FD9E4C"/>
<path d="M150.941 86.2973C150.254 120.409 156.071 151.936 164.758 178.825C161.482 180.85 158.58 181.584 156.064 180.884C148.513 163.191 139.654 144.992 136.757 135.677C132.438 120.988 129.678 101.618 118.741 88.3153L121.796 84.833H148.991L150.941 86.2973Z" fill="#FDBB3D"/>
<path d="M102.657 78.4151C97.6986 81.7258 93.15 86.2126 93.15 86.2126C92.6352 88.2032 94.7516 89.8186 97.9045 91.2852L105.359 85.6063L106.832 81.4055L102.657 78.4151Z" fill="#F07553"/>
<path d="M104.4 83.4419C98.6572 84.9153 93.8752 86.8945 95.248 92.0883L96.2136 94.1795C98.6412 97.3988 102.648 91.9281 107.153 89.6767L107.958 86.4575L104.4 83.4419Z" fill="#FD9176"/>
<path d="M118.311 58.6077C116.35 66.4167 110.106 73.2373 102.657 78.4151L104.4 83.4487L110.296 84.0528L119.712 75.3583L121.158 60.8774L118.311 58.6077Z" fill="#DA1211"/>
<path d="M127.592 30.2019C127.82 28.2914 128.289 25.9622 128.136 23.3859L135.778 10.8361L139.498 12.5841L139.81 26.0217L141.752 29.305L131.776 33.0367L127.592 30.2019Z" fill="#F07553"/>
<path d="M127.591 29.5155C118.005 40.7497 117.481 65.8401 116.392 88.2353C125.493 92.8113 141.752 91.2852 150.941 86.2973C151.726 68.5949 148.255 56.3654 148.575 39.9328C148.575 34.8603 145.85 27.3602 139.81 26.0308C136.268 29.1494 131.948 30.3048 127.591 29.5155Z" fill="#FD1701"/>
<path d="M142.411 28.328C132.538 27.5226 132.614 43.0148 131.31 57.1319C128.413 64.7396 114.719 73.553 103.128 83.4442L105.89 89.679C120.03 80.7557 137.826 73.3494 142.411 68.7642C147.161 51.7093 155.924 29.9365 142.411 28.328Z" fill="#FD1701"/>
<path d="M135.234 16.8147C135.234 22.6377 129.198 27.5089 126.997 27.5089C124.521 27.5089 123.597 25.1499 122.588 22.0977C121.956 20.1941 119.94 21.9078 119.94 20.6265C119.94 19.439 121.007 17.3958 120.879 16.1672C120.281 10.4471 120.899 5.24414 127.795 5.24414C134.037 5.24414 135.234 10.9825 135.234 16.8147Z" fill="#FD9176"/>
<path d="M119.265 5.24415C119.606 7.96232 122.851 7.95317 126.608 7.46582L127.207 12.4995L129.598 11.8977V15.4853C131.939 14.323 134.044 19.073 137.965 20.1254H139.796C139.784 14.7783 141.125 6.00606 138.137 3.01791C131.593 -2.95154 120.808 1.83042 119.265 5.24415Z" fill="#161432"/>
<path d="M132.021 17.016C132.961 17.016 133.723 15.7653 133.723 14.2224C133.723 12.6795 132.961 11.4287 132.021 11.4287C131.081 11.4287 130.319 12.6795 130.319 14.2224C130.319 15.7653 131.081 17.016 132.021 17.016Z" fill="#FD9176"/>
<path d="M117.476 72.0223C117.419 72.0272 117.366 71.9932 117.347 71.9396C117.328 71.8859 117.347 71.826 117.394 71.7935L118.959 70.4894C123.931 66.3595 129.072 62.0855 131.184 57.0999C131.506 47.6686 132.767 39.5599 134.931 33.0001C134.954 32.9332 135.027 32.8974 135.094 32.9201C135.126 32.9305 135.152 32.9533 135.167 32.9834C135.182 33.0135 135.185 33.0484 135.174 33.0802C133.016 39.6217 131.758 47.7236 131.438 57.1319C131.436 57.1476 131.432 57.163 131.426 57.1777C129.296 62.2296 124.123 66.5288 119.121 70.677C118.6 71.1117 118.076 71.5442 117.558 71.9789C117.537 72.003 117.508 72.0185 117.476 72.0223Z" fill="#161432"/>
<path d="M121.62 13.8402C121.584 13.8407 121.55 13.8257 121.526 13.7991C121.476 13.7491 121.476 13.6683 121.526 13.6183C122.633 12.6162 123.759 12.2775 124.876 12.6162C124.908 12.6251 124.936 12.6471 124.952 12.6769C124.968 12.7068 124.971 12.7419 124.96 12.774C124.939 12.8405 124.869 12.8781 124.802 12.8587C123.777 12.5498 122.743 12.8587 121.698 13.8059C121.676 13.826 121.649 13.8382 121.62 13.8402Z" fill="#161432"/>
<path d="M123.289 14.8659C123.756 14.6974 124.078 14.4048 124.009 14.2122C123.94 14.0196 123.504 14.0001 123.037 14.1685C122.57 14.337 122.248 14.6297 122.317 14.8222C122.387 15.0148 122.822 15.0344 123.289 14.8659Z" fill="#161432"/>
<path d="M123.723 24.5825C123.661 24.5773 123.612 24.5293 123.606 24.4681C123.599 24.3988 123.649 24.3369 123.718 24.3285C124.887 24.1981 125.697 23.8709 127.182 22.8894C127.24 22.8604 127.311 22.8795 127.346 22.9338C127.382 22.988 127.371 23.0604 127.322 23.1021C125.798 24.0997 124.963 24.4452 123.745 24.5802L123.723 24.5825Z" fill="#161432"/>
<path d="M133.81 92.2736C135.813 96.1694 139.205 98.6099 143.985 99.5953" stroke="black" stroke-linecap="round" stroke-linejoin="round"/>
<path d="M138.897 137.627C140.388 136.298 141.88 135.473 143.372 135.151" stroke="black" stroke-linecap="round" stroke-linejoin="round"/>
<path d="M139.352 138.547C140.989 137.854 142.693 137.335 144.438 136.998" stroke="black" stroke-linecap="round" stroke-linejoin="round"/>
<path d="M117.311 141.665C118.73 141.189 120.265 141.189 121.684 141.665" stroke="black" stroke-linecap="round" stroke-linejoin="round"/>
<path d="M117.311 142.562C118.684 142.361 119.963 142.464 121.059 143.182" stroke="black" stroke-linecap="round" stroke-linejoin="round"/>
<path d="M119.185 82.069C126.278 79.0809 132.941 75.6328 138.897 71.4091" stroke="black" stroke-linecap="round" stroke-linejoin="round"/>
<path d="M1.86588 121.704L78.4422 119.685L78.4489 119.937L1.87251 121.955L1.86588 121.704Z" fill="black"/>
<rect x="1.87158" y="128.635" width="75.1203" height="0.251682" fill="black"/>
<path d="M1.68668 134.865L1.69171 134.613L75.1395 136.082L75.1345 136.334L1.68668 134.865Z" fill="black"/>
<path d="M1.86647 141.107L1.87731 140.855L75.1906 144.018L75.1797 144.269L1.86647 141.107Z" fill="black"/>
<path d="M1.38422 115.816L80.3978 111.025L80.413 111.276L1.39945 116.067L1.38422 115.816Z" fill="black"/>
<path d="M61.3236 151.964L70.4282 102.744L70.6757 102.789L61.5711 152.009L61.3236 151.964Z" fill="black"/>
<path d="M50.9461 151.962L59.9311 104.905L60.1784 104.952L51.1933 152.009L50.9461 151.962Z" fill="black"/>
<path d="M41.9165 150.278L50.9659 106.657L51.2124 106.708L42.163 150.329L41.9165 150.278Z" fill="black"/>
<path d="M33.3292 148.856L40.7904 108.872L41.0378 108.918L33.5766 148.902L33.3292 148.856Z" fill="black"/>
<path d="M24.2194 147.764L31.2133 111.136L31.4605 111.183L24.4667 147.812L24.2194 147.764Z" fill="black"/>
<path d="M15.7187 147.74L22.4812 111.11L22.7287 111.155L15.9662 147.785L15.7187 147.74Z" fill="black"/>
<path d="M7.89791 146.348L13.4972 112.23L13.7455 112.271L8.14627 146.389L7.89791 146.348Z" fill="black"/>
<path d="M22.5942 195.045C25.5764 195.045 27.9939 192.627 27.9939 189.645C27.9939 186.663 25.5764 184.245 22.5942 184.245C19.612 184.245 17.1945 186.663 17.1945 189.645C17.1945 192.627 19.612 195.045 22.5942 195.045Z" fill="#061432"/>
<path d="M104.336 195.006C107.318 195.006 109.736 192.588 109.736 189.606C109.736 186.624 107.318 184.206 104.336 184.206C101.354 184.206 98.9363 186.624 98.9363 189.606C98.9363 192.588 101.354 195.006 104.336 195.006Z" fill="#061432"/>
<path d="M82.3688 181.266H11.598C10.486 181.266 9.58453 180.365 9.58453 179.253C9.58453 178.141 10.486 177.239 11.598 177.239H82.3688C86.9448 177.239 90.4638 176.72 92.8205 175.697C94.374 175.022 96.1587 173.915 96.1587 171.327C96.1587 166.538 89.8918 163.902 83.8331 161.354C77.5273 158.702 71.0088 155.958 71.7821 150.106C71.7821 150.067 71.7936 150.028 71.8027 149.989L81.9203 97.3141L81.9409 97.2272C83.0621 92.5299 88.6036 91.0495 93.9622 89.6378C94.6166 89.4639 95.2709 89.29 95.9139 89.1116C96.6131 88.8986 97.3727 89.0813 97.8987 89.5888C98.4246 90.0964 98.6342 90.849 98.4463 91.5554C98.2583 92.2617 97.7024 92.8107 96.9938 92.9898C96.3349 93.1751 95.6645 93.3513 94.9941 93.5297C90.8001 94.6417 86.4643 95.7926 85.8649 98.1264L75.7701 150.682C75.4613 153.462 80.2867 155.487 85.3936 157.64C92.3263 160.557 100.186 163.864 100.186 171.327C100.186 173.864 99.1857 177.324 94.4244 179.39C91.5209 180.653 87.5786 181.266 82.3688 181.266Z" fill="#2961EB"/>
<path d="M96.2045 175.764C98.9638 177.422 101.137 180.049 101.945 184.938H106.727C106.176 179.337 103.49 175.478 99.4054 172.748L96.2045 175.764Z" fill="#2961EB"/>
<path d="M101.945 184.936L103.794 192.015H105.059L106.727 184.936L104.336 184.206L101.945 184.936Z" fill="#2961EB"/>
<path d="M19.9172 181.266L21.6699 190.263H23.2257L25.2689 181.266L24.5894 179.948H20.8919L19.9172 181.266Z" fill="#2961EB"/>
<path d="M74.3607 155.331L1.94481 147.822C0.917768 147.718 0.136661 146.853 0.137268 145.82V114.22C0.137764 113.228 0.860999 112.383 1.84184 112.23L83.3435 99.5861L83.9612 103.565L4.16419 115.945V144.006L74.7657 151.327L74.3607 155.331Z" fill="#2961EB"/>
</svg>
