<svg width="360" height="640" viewBox="0 0 360 640" fill="none" xmlns="http://www.w3.org/2000/svg">
<g clip-path="url(#clip0_0_2096)">
<rect width="360" height="640" fill="#0063C6"/>
<g clip-path="url(#clip1_0_2096)">
<path d="M112.5 292.5H220C235.188 292.5 247.5 304.812 247.5 320V347.5H140C124.812 347.5 112.5 335.188 112.5 320V292.5Z" fill="#FFC100" stroke="#FFC100" stroke-width="5"/>
<mask id="mask0_0_2096" style="mask-type:alpha" maskUnits="userSpaceOnUse" x="110" y="290" width="140" height="60">
<path d="M112.5 292.5H220C235.188 292.5 247.5 304.812 247.5 320V347.5H140C124.812 347.5 112.5 335.188 112.5 320V292.5Z" fill="white" stroke="white" stroke-width="5"/>
</mask>
<g mask="url(#mask0_0_2096)">
</g>
<path d="M130.165 334C129.93 334 129.738 333.925 129.589 333.776C129.44 333.627 129.365 333.435 129.365 333.2V312.4C129.365 312.165 129.44 311.973 129.589 311.824C129.738 311.675 129.93 311.6 130.165 311.6H145.109C145.344 311.6 145.536 311.675 145.685 311.824C145.834 311.973 145.909 312.165 145.909 312.4V315.408C145.909 315.643 145.834 315.835 145.685 315.984C145.536 316.133 145.344 316.208 145.109 316.208H134.901V320.528H144.405C144.64 320.528 144.832 320.613 144.981 320.784C145.13 320.933 145.205 321.125 145.205 321.36V324.144C145.205 324.357 145.13 324.549 144.981 324.72C144.832 324.869 144.64 324.944 144.405 324.944H134.901V329.392H145.365C145.6 329.392 145.792 329.467 145.941 329.616C146.09 329.765 146.165 329.957 146.165 330.192V333.2C146.165 333.435 146.09 333.627 145.941 333.776C145.792 333.925 145.6 334 145.365 334H130.165ZM149.968 326.704C149.733 326.704 149.541 326.629 149.392 326.48C149.242 326.331 149.168 326.139 149.168 325.904V322.896C149.168 322.661 149.242 322.469 149.392 322.32C149.541 322.171 149.733 322.096 149.968 322.096H159.984C160.218 322.096 160.41 322.171 160.56 322.32C160.709 322.469 160.784 322.661 160.784 322.896V325.904C160.784 326.139 160.709 326.331 160.56 326.48C160.41 326.629 160.218 326.704 159.984 326.704H149.968ZM174.018 334.32C171.991 334.32 170.252 333.989 168.802 333.328C167.372 332.667 166.252 331.696 165.442 330.416C164.652 329.136 164.215 327.547 164.13 325.648C164.108 324.773 164.098 323.835 164.098 322.832C164.098 321.829 164.108 320.869 164.13 319.952C164.215 318.096 164.663 316.528 165.474 315.248C166.284 313.947 167.415 312.965 168.866 312.304C170.316 311.621 172.034 311.28 174.018 311.28C175.426 311.28 176.727 311.461 177.922 311.824C179.116 312.165 180.162 312.677 181.058 313.36C181.954 314.021 182.647 314.832 183.138 315.792C183.65 316.731 183.916 317.797 183.938 318.992C183.959 319.184 183.895 319.344 183.746 319.472C183.618 319.6 183.458 319.664 183.266 319.664H178.946C178.668 319.664 178.455 319.611 178.306 319.504C178.156 319.376 178.028 319.152 177.922 318.832C177.623 317.701 177.132 316.933 176.45 316.528C175.788 316.101 174.967 315.888 173.986 315.888C172.812 315.888 171.884 316.219 171.202 316.88C170.519 317.52 170.146 318.597 170.082 320.112C170.018 321.861 170.018 323.653 170.082 325.488C170.146 327.003 170.519 328.091 171.202 328.752C171.884 329.392 172.812 329.712 173.986 329.712C174.967 329.712 175.799 329.499 176.482 329.072C177.164 328.645 177.644 327.877 177.922 326.768C178.007 326.448 178.124 326.235 178.274 326.128C178.444 326 178.668 325.936 178.946 325.936H183.266C183.458 325.936 183.618 326 183.746 326.128C183.895 326.256 183.959 326.416 183.938 326.608C183.916 327.803 183.65 328.88 183.138 329.84C182.647 330.779 181.954 331.589 181.058 332.272C180.162 332.933 179.116 333.445 177.922 333.808C176.727 334.149 175.426 334.32 174.018 334.32ZM194.823 334.32C193.031 334.32 191.516 334.032 190.279 333.456C189.063 332.88 188.124 332.059 187.463 330.992C186.823 329.904 186.46 328.613 186.375 327.12C186.353 326.693 186.343 326.213 186.343 325.68C186.343 325.125 186.353 324.645 186.375 324.24C186.46 322.725 186.844 321.435 187.527 320.368C188.209 319.301 189.159 318.48 190.375 317.904C191.612 317.328 193.095 317.04 194.823 317.04C196.572 317.04 198.055 317.328 199.271 317.904C200.508 318.48 201.468 319.301 202.151 320.368C202.833 321.435 203.217 322.725 203.303 324.24C203.324 324.645 203.335 325.125 203.335 325.68C203.335 326.213 203.324 326.693 203.303 327.12C203.217 328.613 202.844 329.904 202.183 330.992C201.543 332.059 200.604 332.88 199.367 333.456C198.151 334.032 196.636 334.32 194.823 334.32ZM194.823 330.416C195.783 330.416 196.476 330.128 196.903 329.552C197.351 328.976 197.607 328.112 197.671 326.96C197.692 326.64 197.703 326.213 197.703 325.68C197.703 325.147 197.692 324.72 197.671 324.4C197.607 323.269 197.351 322.416 196.903 321.84C196.476 321.243 195.783 320.944 194.823 320.944C193.884 320.944 193.191 321.243 192.743 321.84C192.295 322.416 192.049 323.269 192.007 324.4C191.985 324.72 191.975 325.147 191.975 325.68C191.975 326.213 191.985 326.64 192.007 326.96C192.049 328.112 192.295 328.976 192.743 329.552C193.191 330.128 193.884 330.416 194.823 330.416ZM207.282 334C207.047 334 206.855 333.925 206.706 333.776C206.556 333.627 206.482 333.435 206.482 333.2V318.16C206.482 317.925 206.556 317.733 206.706 317.584C206.855 317.435 207.047 317.36 207.282 317.36H210.77C211.004 317.36 211.196 317.435 211.346 317.584C211.495 317.733 211.57 317.925 211.57 318.16V319.248C211.996 318.672 212.594 318.171 213.362 317.744C214.13 317.296 215.036 317.061 216.082 317.04C218.535 316.997 220.22 317.925 221.138 319.824C221.628 319.013 222.332 318.352 223.25 317.84C224.167 317.307 225.17 317.04 226.258 317.04C227.367 317.04 228.359 317.296 229.234 317.808C230.13 318.299 230.844 319.067 231.378 320.112C231.911 321.136 232.178 322.469 232.178 324.112V333.2C232.178 333.435 232.092 333.627 231.922 333.776C231.772 333.925 231.591 334 231.378 334H227.666C227.431 334 227.228 333.925 227.058 333.776C226.908 333.627 226.834 333.435 226.834 333.2V324.336C226.834 323.589 226.727 323.003 226.514 322.576C226.3 322.128 226.012 321.808 225.65 321.616C225.287 321.424 224.871 321.328 224.402 321.328C224.018 321.328 223.634 321.424 223.25 321.616C222.887 321.808 222.588 322.128 222.354 322.576C222.14 323.003 222.034 323.589 222.034 324.336V333.2C222.034 333.435 221.959 333.627 221.81 333.776C221.66 333.925 221.468 334 221.234 334H217.522C217.287 334 217.095 333.925 216.946 333.776C216.796 333.627 216.722 333.435 216.722 333.2V324.336C216.722 323.589 216.604 323.003 216.37 322.576C216.135 322.128 215.836 321.808 215.474 321.616C215.111 321.424 214.706 321.328 214.258 321.328C213.874 321.328 213.49 321.424 213.106 321.616C212.743 321.808 212.444 322.128 212.21 322.576C211.996 323.003 211.89 323.579 211.89 324.304V333.2C211.89 333.435 211.804 333.627 211.634 333.776C211.484 333.925 211.292 334 211.058 334H207.282Z" fill="#0E4FAA"/>
</g>
<path d="M188 0H360V172H288C232.772 172 188 127.228 188 72V0Z" fill="#025AB4"/>
<path d="M0 468H72C127.228 468 172 512.772 172 568V640H0V468Z" fill="#025AB4"/>
</g>
<defs>
<clipPath id="clip0_0_2096">
<rect width="360" height="640" fill="white"/>
</clipPath>
<clipPath id="clip1_0_2096">
<rect width="140" height="60" fill="white" transform="translate(110 290)"/>
</clipPath>
</defs>
</svg>
